<?xml version="1.0" encoding="utf-8"?>
<!-- Generator: Adobe Illustrator 16.0.4, SVG Export Plug-In . SVG Version: 6.00 Build 0)  -->
<!DOCTYPE svg PUBLIC "-//W3C//DTD SVG 1.1//EN" "http://www.w3.org/Graphics/SVG/1.1/DTD/svg11.dtd">
<svg version="1.1" xmlns="http://www.w3.org/2000/svg" xmlns:xlink="http://www.w3.org/1999/xlink" x="0px" y="0px" width="400px"
	 height="400px" viewBox="0 0 400 400" enable-background="new 0 0 400 400" xml:space="preserve">
<g id="black_bg">
	<rect x="-9.557" y="-9.555" width="419.113" height="419.11"/>
</g>
<g id="scanner" display="none">
	<g display="inline">
		<g>
			<path fill="#FFFFFF" d="M199.959,148.752L199.959,148.752c20.612,0,39.139,12.255,47.197,31.214
				c11.039,26.008-1.136,56.151-27.135,67.192c-6.393,2.713-13.115,4.088-19.98,4.088c-20.615,0-39.145-12.257-47.203-31.214
				c-11.032-26.006,1.144-56.148,27.139-67.191C186.371,150.128,193.094,148.752,199.959,148.752 M199.959,129.15
				c-9.229,0-18.61,1.815-27.641,5.648c-36.009,15.296-52.801,56.882-37.525,92.89c11.463,26.97,37.677,43.161,65.249,43.161
				c9.227,0,18.61-1.814,27.638-5.646c36.021-15.297,52.81-56.878,37.521-92.896C253.742,145.347,227.529,129.149,199.959,129.15
				L199.959,129.15z"/>
		</g>
		<g>
			<path fill="#39FF97" d="M199.947,106.23v5.503c35.495,0,67.399,21.105,81.28,53.767c19.013,44.795-1.957,96.712-46.745,115.731
				c-11,4.668-22.583,7.035-34.428,7.035c-35.497,0-67.405-21.107-81.289-53.771c-19.001-44.79,1.971-96.704,46.75-115.723
				c11.001-4.67,22.586-7.039,34.432-7.039L199.947,106.23 M199.946,106.23c-12.214,0-24.63,2.402-36.583,7.476
				c-47.659,20.243-69.882,75.283-49.666,122.938c15.173,35.695,49.864,57.126,86.355,57.126c12.211,0,24.63-2.403,36.579-7.474
				c47.674-20.245,69.894-75.277,49.66-122.947C271.127,127.666,236.436,106.23,199.946,106.23L199.946,106.23z"/>
		</g>
		<g>
			<path fill="#39FF97" d="M199.903,36.006c31.786,0,62.733,9.181,89.497,26.551c27.413,17.792,48.686,43.154,61.517,73.344
				c17.114,40.324,17.509,84.894,1.11,125.499c-16.4,40.607-47.639,72.401-87.961,89.523c-20.437,8.673-41.959,13.07-63.969,13.07
				c-31.792,0-62.742-9.179-89.503-26.546c-27.414-17.79-48.69-43.157-61.526-73.356c-17.102-40.312-17.486-84.876-1.084-125.483
				c16.403-40.61,47.636-72.405,87.943-89.526C156.364,40.406,177.889,36.006,199.903,36.006L199.903,36.006 M199.902,30.503
				c-22.079,0-44.522,4.342-66.126,13.513C47.629,80.608,7.458,180.097,44,266.24c27.425,64.521,90.135,103.257,156.096,103.257
				c22.073,0,44.522-4.343,66.119-13.508c86.177-36.594,126.339-136.071,89.767-222.238
				C328.568,69.25,265.859,30.503,199.902,30.503L199.902,30.503z"/>
		</g>
		<g>
			<path fill="#39FF97" d="M199.925,70.504v5.503c24.033,0,47.432,6.942,67.668,20.076c20.727,13.452,36.81,32.628,46.51,55.454
				c12.941,30.487,13.24,64.185,0.841,94.886c-12.399,30.702-36.019,54.741-66.504,67.688c-15.452,6.558-31.725,9.883-48.365,9.883
				c-49.866,0-94.689-29.65-114.192-75.535c-12.93-30.479-13.221-64.173-0.82-94.875c12.402-30.705,36.017-54.744,66.492-67.688
				c15.454-6.561,31.729-9.887,48.371-9.887V70.504 M199.925,70.504c-16.869,0-34.015,3.317-50.521,10.324
				c-65.815,27.956-96.506,103.967-68.587,169.779c20.953,49.294,68.864,78.889,119.259,78.889c16.864,0,34.015-3.317,50.515-10.319
				c65.836-27.959,96.523-103.959,68.579-169.791C298.227,100.107,250.317,70.504,199.925,70.504L199.925,70.504z"/>
		</g>
	</g>
</g>
<g id="table" display="none">
	<g display="inline">
		<path fill="#FFFFFF" d="M199.949,125.895c29.801,0,56.589,17.723,68.242,45.14c15.965,37.607-1.64,81.192-39.237,97.156
			c-9.246,3.924-18.969,5.913-28.897,5.913c-29.809,0-56.604-17.724-68.255-45.135c-15.954-37.606,1.654-81.193,39.246-97.16
			C180.29,127.886,190.011,125.896,199.949,125.895L199.949,125.895 M199.94,97.549c-13.342,0.001-26.914,2.626-39.97,8.168
			c-52.071,22.117-76.354,82.253-54.264,134.323c16.576,38.996,54.482,62.411,94.35,62.411c13.346,0,26.912-2.624,39.97-8.166
			c52.087-22.115,76.364-82.247,54.257-134.326C277.712,120.969,239.812,97.545,199.94,97.549L199.94,97.549z"/>
	</g>
	<g display="inline">
		<path fill="none" stroke="#39FF96" stroke-width="5.2273" stroke-miterlimit="10" d="M242.862,58.865
			c0,6.928-5.617,12.546-12.544,12.546h-60.636c-6.928,0-12.545-5.618-12.545-12.546V48.41c0-6.928,5.617-12.545,12.545-12.545
			h60.636c6.927,0,12.544,5.617,12.544,12.545V58.865z"/>
		<path fill="none" stroke="#39FF96" stroke-width="5.2273" stroke-miterlimit="10" d="M242.862,351.591
			c0,6.929-5.617,12.545-12.544,12.545h-60.636c-6.928,0-12.545-5.616-12.545-12.545v-10.454c0-6.929,5.617-12.547,12.545-12.547
			h60.636c6.927,0,12.544,5.618,12.544,12.547V351.591z"/>
		<g>
			<path fill="none" stroke="#39FF96" stroke-width="5.2273" stroke-miterlimit="10" d="M127.21,71.711
				c5.023,4.772,5.226,12.714,0.454,17.736l-41.767,43.958c-4.773,5.022-12.714,5.225-17.736,0.453l-7.579-7.201
				c-5.023-4.773-5.226-12.713-0.454-17.737l41.766-43.958c4.773-5.022,12.713-5.225,17.736-0.454L127.21,71.711z"/>
			<path fill="none" stroke="#39FF96" stroke-width="5.2273" stroke-miterlimit="10" d="M339.418,273.344
				c5.022,4.771,5.227,12.712,0.453,17.735l-41.765,43.957c-4.774,5.022-12.715,5.228-17.735,0.454l-7.58-7.202
				c-5.022-4.771-5.227-12.712-0.454-17.734l41.768-43.959c4.771-5.023,12.713-5.224,17.735-0.453L339.418,273.344z"/>
		</g>
		<g>
			<path fill="none" stroke="#39FF96" stroke-width="5.2273" stroke-miterlimit="10" d="M57.815,160.756
				c6.927-0.176,12.686,5.296,12.862,12.222l1.549,60.617c0.177,6.926-5.295,12.684-12.221,12.86l-10.452,0.268
				c-6.926,0.178-12.685-5.295-12.861-12.221l-1.549-60.616c-0.177-6.926,5.294-12.685,12.221-12.861L57.815,160.756z"/>
			<path fill="none" stroke="#39FF96" stroke-width="5.2273" stroke-miterlimit="10" d="M350.444,153.278
				c6.928-0.176,12.688,5.294,12.863,12.22l1.549,60.616c0.178,6.927-5.295,12.687-12.221,12.861l-10.451,0.269
				c-6.925,0.176-12.683-5.296-12.86-12.222l-1.552-60.615c-0.176-6.927,5.297-12.686,12.223-12.862L350.444,153.278z"/>
		</g>
		<g>
			<path fill="none" stroke="#39FF96" stroke-width="5.2273" stroke-miterlimit="10" d="M71.711,272.791
				c4.772-5.022,12.715-5.226,17.737-0.454l43.958,41.768c5.022,4.773,5.224,12.713,0.452,17.735l-7.201,7.579
				c-4.772,5.023-12.713,5.226-17.737,0.453l-43.958-41.767c-5.022-4.772-5.225-12.714-0.453-17.734L71.711,272.791z"/>
			<path fill="none" stroke="#39FF96" stroke-width="5.2273" stroke-miterlimit="10" d="M273.344,60.582
				c4.772-5.023,12.714-5.228,17.735-0.455l43.958,41.767c5.022,4.774,5.228,12.714,0.453,17.736l-7.202,7.58
				c-4.77,5.023-12.712,5.225-17.733,0.453l-43.96-41.766c-5.022-4.772-5.223-12.714-0.451-17.736L273.344,60.582z"/>
		</g>
	</g>
</g>
<g id="main_combo">
	<g>
		<g>
			<path fill="#FFFFFF" d="M199.959,148.752L199.959,148.752c20.612,0,39.139,12.255,47.196,31.214
				c11.04,26.008-1.135,56.151-27.134,67.192c-6.393,2.713-13.115,4.088-19.98,4.088c-20.615,0-39.145-12.257-47.203-31.214
				c-11.032-26.006,1.144-56.148,27.139-67.191C186.371,150.128,193.094,148.752,199.959,148.752 M199.959,129.15
				c-9.229,0-18.61,1.815-27.641,5.648c-36.009,15.296-52.801,56.882-37.525,92.89c11.463,26.97,37.677,43.161,65.249,43.161
				c9.227,0,18.61-1.814,27.638-5.646c36.021-15.297,52.81-56.878,37.521-92.896C253.742,145.347,227.529,129.149,199.959,129.15
				L199.959,129.15z"/>
		</g>
		<g>
			<path fill="#39FF97" d="M199.947,106.23v5.503c35.495,0,67.399,21.105,81.28,53.767c19.013,44.795-1.957,96.712-46.745,115.731
				c-11,4.668-22.583,7.035-34.428,7.035c-35.497,0-67.405-21.107-81.289-53.771c-19.001-44.79,1.971-96.704,46.75-115.723
				c11.001-4.67,22.586-7.039,34.432-7.039L199.947,106.23 M199.946,106.23c-12.214,0-24.63,2.402-36.583,7.476
				c-47.659,20.243-69.882,75.283-49.666,122.938c15.173,35.695,49.864,57.126,86.355,57.126c12.211,0,24.63-2.403,36.579-7.474
				c47.674-20.245,69.894-75.277,49.66-122.947C271.127,127.666,236.436,106.23,199.946,106.23L199.946,106.23z"/>
		</g>
		<g>
			<path fill="#39FF97" d="M199.903,36.006c31.786,0,62.733,9.181,89.497,26.551c27.413,17.792,48.686,43.154,61.517,73.344
				c17.114,40.324,17.509,84.894,1.11,125.499c-16.4,40.607-47.639,72.401-87.961,89.523c-20.437,8.673-41.959,13.07-63.969,13.07
				c-31.792,0-62.742-9.179-89.503-26.546c-27.414-17.79-48.69-43.157-61.526-73.356c-17.102-40.312-17.486-84.876-1.084-125.483
				c16.403-40.61,47.636-72.405,87.943-89.526C156.364,40.406,177.889,36.006,199.903,36.006L199.903,36.006 M199.902,30.503
				c-22.079,0-44.522,4.342-66.126,13.513C47.629,80.608,7.458,180.097,44,266.24c27.425,64.521,90.135,103.257,156.096,103.257
				c22.073,0,44.522-4.343,66.119-13.508c86.177-36.594,126.339-136.071,89.767-222.238
				C328.568,69.25,265.859,30.503,199.902,30.503L199.902,30.503z"/>
		</g>
		<g>
			<path fill="#39FF97" d="M199.925,70.504v5.503c24.033,0,47.432,6.942,67.668,20.076c20.727,13.452,36.81,32.628,46.51,55.454
				c12.941,30.487,13.24,64.185,0.841,94.886c-12.399,30.702-36.019,54.741-66.504,67.688c-15.452,6.558-31.725,9.883-48.365,9.883
				c-49.866,0-94.689-29.65-114.192-75.535c-12.93-30.479-13.221-64.173-0.82-94.875c12.402-30.705,36.017-54.744,66.492-67.688
				c15.454-6.561,31.729-9.887,48.371-9.887V70.504 M199.925,70.504c-16.869,0-34.015,3.317-50.521,10.324
				c-65.815,27.956-96.506,103.967-68.587,169.779c20.953,49.294,68.864,78.889,119.259,78.889c16.864,0,34.015-3.317,50.515-10.319
				c65.836-27.959,96.523-103.959,68.579-169.791C298.227,100.107,250.317,70.504,199.925,70.504L199.925,70.504z"/>
		</g>
	</g>
	<g>
		<path fill="#FFFFFF" d="M199.949,125.895c29.801,0,56.589,17.723,68.242,45.14c15.965,37.607-1.64,81.192-39.237,97.156
			c-9.246,3.924-18.969,5.913-28.897,5.913c-29.809,0-56.604-17.724-68.255-45.135c-15.954-37.606,1.654-81.193,39.246-97.16
			C180.29,127.886,190.011,125.896,199.949,125.895L199.949,125.895 M199.94,97.549c-13.342,0.001-26.914,2.626-39.97,8.168
			c-52.071,22.117-76.354,82.253-54.264,134.323c16.576,38.996,54.482,62.411,94.35,62.411c13.346,0,26.912-2.624,39.97-8.166
			c52.087-22.115,76.364-82.247,54.257-134.326C277.712,120.969,239.812,97.545,199.94,97.549L199.94,97.549z"/>
	</g>
	<g>
		<path fill="none" stroke="#39FF96" stroke-width="5.2273" stroke-miterlimit="10" d="M242.862,58.865
			c0,6.928-5.617,12.546-12.544,12.546h-60.636c-6.928,0-12.545-5.618-12.545-12.546V48.41c0-6.928,5.617-12.545,12.545-12.545
			h60.636c6.927,0,12.544,5.617,12.544,12.545V58.865z"/>
		<path fill="none" stroke="#39FF96" stroke-width="5.2273" stroke-miterlimit="10" d="M242.862,351.591
			c0,6.929-5.617,12.545-12.544,12.545h-60.636c-6.928,0-12.545-5.616-12.545-12.545v-10.454c0-6.929,5.617-12.547,12.545-12.547
			h60.636c6.927,0,12.544,5.618,12.544,12.547V351.591z"/>
		<g>
			<path fill="none" stroke="#39FF96" stroke-width="5.2273" stroke-miterlimit="10" d="M127.21,71.711
				c5.023,4.772,5.226,12.714,0.454,17.736l-41.767,43.958c-4.773,5.022-12.714,5.225-17.736,0.453l-7.579-7.201
				c-5.023-4.773-5.226-12.713-0.454-17.737l41.766-43.958c4.773-5.022,12.713-5.225,17.736-0.454L127.21,71.711z"/>
			<path fill="none" stroke="#39FF96" stroke-width="5.2273" stroke-miterlimit="10" d="M339.418,273.344
				c5.022,4.771,5.227,12.712,0.453,17.735l-41.765,43.957c-4.774,5.022-12.715,5.228-17.735,0.454l-7.58-7.202
				c-5.022-4.771-5.227-12.712-0.454-17.734l41.768-43.959c4.771-5.023,12.713-5.224,17.735-0.453L339.418,273.344z"/>
		</g>
		<g>
			<path fill="none" stroke="#39FF96" stroke-width="5.2273" stroke-miterlimit="10" d="M57.815,160.756
				c6.927-0.176,12.686,5.296,12.862,12.222l1.549,60.617c0.177,6.926-5.295,12.684-12.221,12.86l-10.452,0.268
				c-6.926,0.178-12.685-5.295-12.861-12.221l-1.549-60.616c-0.177-6.926,5.294-12.685,12.221-12.861L57.815,160.756z"/>
			<path fill="none" stroke="#39FF96" stroke-width="5.2273" stroke-miterlimit="10" d="M350.444,153.278
				c6.928-0.176,12.688,5.294,12.863,12.22l1.549,60.616c0.178,6.927-5.295,12.687-12.221,12.861l-10.451,0.269
				c-6.925,0.176-12.683-5.296-12.86-12.222l-1.552-60.615c-0.176-6.927,5.297-12.686,12.223-12.862L350.444,153.278z"/>
		</g>
		<g>
			<path fill="none" stroke="#39FF96" stroke-width="5.2273" stroke-miterlimit="10" d="M71.711,272.791
				c4.772-5.022,12.715-5.226,17.737-0.454l43.958,41.768c5.022,4.773,5.224,12.713,0.452,17.735l-7.201,7.579
				c-4.772,5.023-12.713,5.226-17.737,0.453l-43.958-41.767c-5.022-4.772-5.225-12.714-0.453-17.734L71.711,272.791z"/>
			<path fill="none" stroke="#39FF96" stroke-width="5.2273" stroke-miterlimit="10" d="M273.344,60.582
				c4.772-5.023,12.714-5.228,17.735-0.455l43.958,41.767c5.022,4.774,5.228,12.714,0.453,17.736l-7.202,7.58
				c-4.77,5.023-12.712,5.225-17.733,0.453l-43.96-41.766c-5.022-4.772-5.223-12.714-0.451-17.736L273.344,60.582z"/>
		</g>
	</g>
	<g>
		<g>
			<path fill="#FFFFFF" d="M199.916,77.038c23.837,0,47.057,6.894,67.149,19.937c20.527,13.325,36.465,32.337,46.081,54.962
				c12.833,30.236,13.13,63.655,0.835,94.1c-12.296,30.445-35.718,54.281-65.943,67.115c-15.34,6.51-31.47,9.811-47.942,9.811
				c-23.847,0-47.073-6.893-67.169-19.934c-20.531-13.323-36.472-32.338-46.087-54.959c-12.823-30.229-13.112-63.646-0.813-94.095
				c12.299-30.45,35.717-54.289,65.933-67.123c15.335-6.51,31.467-9.812,47.954-9.814H199.916 M199.9,30.004
				c-22.139,0.002-44.658,4.357-66.321,13.554c-86.4,36.698-126.691,136.48-90.039,222.88
				c27.505,64.711,90.398,103.559,156.555,103.559c22.139,0,44.655-4.355,66.316-13.548c86.429-36.698,126.71-136.47,90.029-222.889
				C328.944,68.863,266.059,29.998,199.9,30.004L199.9,30.004z"/>
		</g>
		<path fill="#39FF97" d="M245.093,306.242l-3.668-8.662c13.155-5.572,24.844-13.578,34.74-23.797
			c9.576-9.893,17.025-21.36,22.14-34.084c5.15-12.664,7.754-26.085,7.747-39.906c-0.01-14.166-2.855-28.033-8.457-41.216
			c-5.601-13.193-13.612-24.875-23.812-34.721c-9.828-9.546-21.29-16.997-34.078-22.155c-12.803-5.174-26.223-7.75-39.898-7.744
			c-14.251,0.028-28.123,2.876-41.229,8.464c-13.193,5.59-24.881,13.596-34.749,23.799c-9.531,9.856-16.978,21.316-22.136,34.06
			c-5.165,12.828-7.767,26.253-7.732,39.896c0.008,14.204,2.848,28.082,8.438,41.256l-8.659,3.675
			c-6.086-14.342-9.177-29.454-9.187-44.916c-0.038-14.852,2.794-29.467,8.416-43.432c5.616-13.877,13.722-26.35,24.097-37.079
			c10.751-11.116,23.479-19.835,37.832-25.917c14.265-6.082,29.371-9.183,44.888-9.213c0.099,0,0.199,0,0.298,0
			c14.789,0,29.303,2.835,43.144,8.428c13.921,5.615,26.403,13.731,37.1,24.121c11.104,10.718,19.83,23.44,25.927,37.801
			c6.098,14.349,9.195,29.452,9.205,44.887c0.009,15.044-2.829,29.659-8.433,43.438c-5.563,13.841-13.675,26.329-24.102,37.102
			C272.144,291.457,259.416,300.176,245.093,306.242z"/>
	</g>
</g>
<g id="mobile" display="none">
	<g display="inline">
		<g>
			<path fill="#FFFFFF" d="M199.916,77.038c23.837,0,47.057,6.894,67.149,19.937c20.527,13.325,36.465,32.337,46.081,54.962
				c12.834,30.236,13.13,63.655,0.835,94.1c-12.296,30.445-35.718,54.281-65.943,67.115c-15.34,6.51-31.47,9.811-47.942,9.811
				c-23.847,0-47.073-6.893-67.169-19.934c-20.531-13.323-36.472-32.338-46.087-54.959c-12.823-30.229-13.112-63.646-0.813-94.095
				c12.299-30.45,35.717-54.289,65.933-67.123c15.335-6.51,31.467-9.812,47.954-9.814H199.916 M199.9,30.004
				c-22.139,0.002-44.658,4.357-66.321,13.554c-86.4,36.698-126.691,136.48-90.039,222.88
				c27.505,64.711,90.398,103.559,156.555,103.559c22.139,0,44.655-4.355,66.316-13.548c86.429-36.698,126.71-136.47,90.029-222.889
				C328.944,68.863,266.059,29.998,199.9,30.004L199.9,30.004z"/>
		</g>
		<path fill="none" stroke="#39FF97" stroke-width="9.4068" stroke-miterlimit="10" d="M98.068,243.269
			c-5.968-14.062-8.804-28.668-8.812-43.081c-0.037-14.375,2.781-28.521,8.076-41.672c5.314-13.132,13.114-25.224,23.115-35.566
			c10.011-10.351,22.223-18.897,36.285-24.855c14.062-5.995,28.695-8.812,43.062-8.84c14.392-0.037,28.566,2.79,41.67,8.085
			c13.151,5.305,25.28,13.124,35.585,23.133c10.36,10.001,18.897,22.186,24.875,36.266c5.976,14.062,8.821,28.696,8.831,43.053
			c0.008,14.395-2.753,28.549-8.086,41.663c-5.287,13.151-13.133,25.278-23.125,35.602c-10.009,10.334-22.221,18.898-36.285,24.855"
			/>
	</g>
</g>
</svg>
